{
  "accessors": [
    {
      "bufferView": 2,
      "componentType": 5126,
      "count": 682,
      "max": [
        750.0,
        120.00000762939453,
        750.0
      ],
      "min": [
        -750.0,
        0.0,
        -750.0
      ],
      "type": "VEC3"
    },
    {
      "bufferView": 2,
      "byteOffset": 8184,
      "componentType": 5126,
      "count": 682,
      "max": [
        1.0,
        1.0,
        1.0
      ],
      "min": [
        -1.0,
        0.0,
        -1.0
      ],
      "type": "VEC3"
    },
    {
      "bufferView": 1,
      "componentType": 5126,
      "count": 682,
      "max": [
        0.28301718831062317,
        2.689176082611084
      ],
      "min": [
        -2.9802322387695313e-08,
        0.0
      ],
      "type": "VEC2"
    },
    {
      "bufferView": 0,
      "componentType": 5125,
      "count": 1872,
      "type": "SCALAR"
    },
    {
      "bufferView": 2,
      "byteOffset": 16368,
      "componentType": 5126,
      "count": 4,
      "max": [
        750.0,
        0.0,
        750.0
      ],
      "min": [
        -750.0,
        0.0,
        -750.0
      ],
      "type": "VEC3"
    },
    {
      "bufferView": 2,
      "byteOffset": 16416,
      "componentType": 5126,
      "count": 4,
      "max": [
        0.0,
        1.0,
        0.0
      ],
      "min": [
        0.0,
        1.0,
        0.0
      ],
      "type": "VEC3"
    },
    {
      "bufferView": 1,
      "byteOffset": 5456,
      "componentType": 5126,
      "count": 4,
      "max": [
        0.9776714444160461,
        0.31210750341415405
      ],
      "min": [
        0.6847026944160461,
        0.019138745963573456
      ],
      "type": "VEC2"
    },
    {
      "bufferView": 0,
      "byteOffset": 7488,
      "componentType": 5125,
      "count": 6,
      "type": "SCALAR"
    },
    {
      "bufferView": 2,
      "byteOffset": 16464,
      "componentType": 5126,
      "count": 258,
      "max": [
        61.22690963745117,
        54.48029708862305,
        26.112333297729492
      ],
      "min": [
        -61.22690963745117,
        -59.64336013793945,
        -26.112329483032227
      ],
      "type": "VEC3"
    },
    {
      "bufferView": 2,
      "byteOffset": 19560,
      "componentType": 5126,
      "count": 258,
      "max": [
        0.9995438456535339,
        0.9966505169868469,
        0.9999838471412659
      ],
      "min": [
        -0.9995439052581787,
        -1.0,
        -0.9999838471412659
      ],
      "type": "VEC3"
    },
    {
      "bufferView": 1,
      "byteOffset": 5488,
      "componentType": 5126,
      "count": 258,
      "max": [
        0.9925905466079712,
        0.9836992025375366
      ],
      "min": [
        0.755614161491394,
        0.7648169994354248
      ],
      "type": "VEC2"
    },
    {
      "bufferView": 0,
      "byteOffset": 7512,
      "componentType": 5125,
      "count": 1344,
      "type": "SCALAR"
    },
    {
      "bufferView": 2,
      "byteOffset": 22656,
      "componentType": 5126,
      "count": 1485,
      "max": [
        165.24447631835938,
        456.1040954589844,
        165.8905487060547
      ],
      "min": [
        -165.25942993164063,
        1.8200148344039917,
        -163.21913146972656
      ],
      "type": "VEC3"
    },
    {
      "bufferView": 2,
      "byteOffset": 40476,
      "componentType": 5126,
      "count": 1485,
      "max": [
        0.9995293021202087,
        1.0,
        0.9999999403953552
      ],
      "min": [
        -0.9995602965354919,
        -1.0,
        -0.9999999403953552
      ],
      "type": "VEC3"
    },
    {
      "bufferView": 1,
      "byteOffset": 7552,
      "componentType": 5126,
      "count": 1485,
      "max": [
        0.9747216701507568,
        0.9878109097480774
      ],
      "min": [
        0.16006243228912354,
        0.006526827812194824
      ],
      "type": "VEC2"
    },
    {
      "bufferView": 0,
      "byteOffset": 12888,
      "componentType": 5125,
      "count": 3318,
      "type": "SCALAR"
    },
    {
      "bufferView": 3,
      "componentType": 5126,
      "count": 118,
      "max": [
        2.5
      ],
      "min": [
        0.0416666679084301
      ],
      "type": "SCALAR"
    },
    {
      "bufferView": 4,
      "componentType": 5126,
      "count": 118,
      "max": [
        0.28555992245674133,
        0.9996455907821655,
        0.24132545292377472,
        1.0
      ],
      "min": [
        -0.2767433524131775,
        -0.7727656364440918,
        -0.24401436746120453,
        -0.48005393147468567
      ],
      "type": "VEC4"
    }
  ],
  "animations": [
    {
      "channels": [
        {
          "sampler": 0,
          "target": {
            "node": 9,
            "path": "rotation"
          }
        }
      ],
      "name": "Take 001",
      "samplers": [
        {
          "input": 16,
          "interpolation": "LINEAR",
          "output": 17
        }
      ]
    }
  ],
  "asset": {
    "extras": {
      "author": "carysgooi (https://sketchfab.com/carysgooi)",
      "license": "CC-BY-NC-ND-4.0 (http://creativecommons.org/licenses/by-nc-nd/4.0/)",
      "source": "https://sketchfab.com/3d-models/bubblegum-maze-c4f59b1ae58042dcba7aa1b4badb2b96",
      "title": "Bubblegum Maze"
    },
    "generator": "Sketchfab-12.68.0",
    "version": "2.0"
  },
  "bufferViews": [
    {
      "buffer": 0,
      "byteLength": 26160,
      "name": "floatBufferViews",
      "target": 34963
    },
    {
      "buffer": 0,
      "byteLength": 19432,
      "byteOffset": 26160,
      "byteStride": 8,
      "name": "floatBufferViews",
      "target": 34962
    },
    {
      "buffer": 0,
      "byteLength": 58296,
      "byteOffset": 45592,
      "byteStride": 12,
      "name": "floatBufferViews",
      "target": 34962
    },
    {
      "buffer": 0,
      "byteLength": 472,
      "byteOffset": 103888,
      "name": "floatBufferViews"
    },
    {
      "buffer": 0,
      "byteLength": 1888,
      "byteOffset": 104360,
      "byteStride": 16,
      "name": "floatBufferViews"
    }
  ],
  "buffers": [
    {
      "byteLength": 106248,
      "uri": "scene.bin"
    }
  ],
  "images": [
    {
      "uri": "textures/lambert1_baseColor.png"
    },
    {
      "uri": "textures/lambert1_metallicRoughness.png"
    },
    {
      "uri": "textures/lambert1_emissive.png"
    }
  ],
  "materials": [
    {
      "doubleSided": true,
      "emissiveFactor": [
        1.0,
        1.0,
        1.0
      ],
      "emissiveTexture": {
        "index": 2
      },
      "name": "lambert1",
      "occlusionTexture": {
        "index": 1
      },
      "pbrMetallicRoughness": {
        "baseColorTexture": {
          "index": 0
        },
        "metallicRoughnessTexture": {
          "index": 1
        }
      }
    }
  ],
  "meshes": [
    {
      "name": "Maze_lambert1_0",
      "primitives": [
        {
          "attributes": {
            "NORMAL": 1,
            "POSITION": 0,
            "TEXCOORD_0": 2
          },
          "indices": 3,
          "material": 0,
          "mode": 4
        }
      ]
    },
    {
      "name": "Floor_lambert1_0",
      "primitives": [
        {
          "attributes": {
            "NORMAL": 5,
            "POSITION": 4,
            "TEXCOORD_0": 6
          },
          "indices": 7,
          "material": 0,
          "mode": 4
        }
      ]
    },
    {
      "name": "Heart_lambert1_0",
      "primitives": [
        {
          "attributes": {
            "NORMAL": 9,
            "POSITION": 8,
            "TEXCOORD_0": 10
          },
          "indices": 11,
          "material": 0,
          "mode": 4
        }
      ]
    },
    {
      "name": "Gazebo_lambert1_0",
      "primitives": [
        {
          "attributes": {
            "NORMAL": 13,
            "POSITION": 12,
            "TEXCOORD_0": 14
          },
          "indices": 15,
          "material": 0,
          "mode": 4
        }
      ]
    }
  ],
  "nodes": [
    {
      "children": [
        1
      ],
      "matrix": [
        1.0,
        0.0,
        0.0,
        0.0,
        0.0,
        2.220446049250313e-16,
        -1.0,
        0.0,
        0.0,
        1.0,
        2.220446049250313e-16,
        0.0,
        0.0,
        0.0,
        0.0,
        1.0
      ],
      "name": "Sketchfab_model"
    },
    {
      "children": [
        2
      ],
      "matrix": [
        1.0,
        0.0,
        0.0,
        0.0,
        0.0,
        0.0,
        1.0,
        0.0,
        0.0,
        -1.0,
        0.0,
        0.0,
        0.0,
        0.0,
        0.0,
        1.0
      ],
      "name": "2fe9b13ae42a4be286e387aca35fe82f.fbx"
    },
    {
      "children": [
        3
      ],
      "name": "Object_2"
    },
    {
      "children": [
        4
      ],
      "name": "RootNode"
    },
    {
      "children": [
        5,
        7,
        9,
        11
      ],
      "name": "D1_Maze",
      "scale": [
        0.009999999776482582,
        0.009999999776482582,
        0.009999999776482582
      ]
    },
    {
      "children": [
        6
      ],
      "name": "Maze"
    },
    {
      "mesh": 0,
      "name": "Maze_lambert1_0"
    },
    {
      "children": [
        8
      ],
      "name": "Floor"
    },
    {
      "mesh": 1,
      "name": "Floor_lambert1_0"
    },
    {
      "children": [
        10
      ],
      "name": "Heart",
      "translation": [
        1.01125929495799e-15,
        117.86827087402344,
        -1.8511447664451217e-15
      ]
    },
    {
      "mesh": 2,
      "name": "Heart_lambert1_0"
    },
    {
      "children": [
        12
      ],
      "name": "Gazebo"
    },
    {
      "mesh": 3,
      "name": "Gazebo_lambert1_0"
    }
  ],
  "samplers": [
    {
      "magFilter": 9729,
      "minFilter": 9987,
      "wrapS": 10497,
      "wrapT": 10497
    }
  ],
  "scene": 0,
  "scenes": [
    {
      "name": "Sketchfab_Scene",
      "nodes": [
        0
      ]
    }
  ],
  "textures": [
    {
      "sampler": 0,
      "source": 0
    },
    {
      "sampler": 0,
      "source": 1
    },
    {
      "sampler": 0,
      "source": 2
    }
  ]
}
